<svg width="126" height="74" viewBox="0 0 126 74" fill="none" xmlns="http://www.w3.org/2000/svg">
<path id="Exclude" fill-rule="evenodd" clip-rule="evenodd" d="M0 6.95491C0 3.59299 2.4315 0.867188 5.43103 0.867188H120.569C123.569 0.867188 126 3.59299 126 6.95491V67.8321C126 71.194 123.569 73.9198 120.569 73.9198H5.43103C2.4315 73.9198 0 71.194 0 67.8321V6.95491ZM90.9035 26.1366L80.9284 8.17245H76.142V35.0761H80.7169V17.5329L90.5373 35.0761H95.4734V8.17245H90.9035V26.1366ZM47.5524 30.5496H35.3182V8.40015H30.3977V35.0815H47.5524V30.5496ZM13.7485 44.266H6.51724V39.7168H25.8795V44.266H18.6689V66.6146H13.7485V44.266ZM42.6784 50.3014H33.0385V39.7168H28.1179V66.6146H33.0385V54.8511H42.6784V66.6146H47.5989V39.7168H42.6784V50.3014ZM80.9284 39.7049L90.9035 57.6697V39.7049H95.4734V66.6086H90.5373L80.7169 49.066V66.6086H76.142V39.7049H80.9284ZM100.053 48.4453H100.084C100.389 54.0711 104.597 58.5293 109.766 58.5293C115.104 58.5293 119.426 53.7864 119.478 47.9043H119.483V33.8063H108.337V38.8512H114.913V47.8021C114.913 50.9393 112.608 53.4843 109.766 53.4843C106.924 53.4843 104.623 50.9393 104.623 47.8021V13.2174H114.913V28.8582H119.483V8.17245H100.053V48.4453ZM104.623 66.6146C102.101 66.6146 100.053 64.3543 100.053 61.5696H119.483C119.483 64.3543 117.435 66.6146 114.913 66.6146H104.623ZM61.8499 8.17245C56.4806 8.17245 52.1326 12.9725 52.1326 18.8997V66.6146H56.7023V18.8997C56.7023 15.7625 59.0079 13.2174 61.8499 13.2174C64.6918 13.2174 66.9921 15.7625 66.9921 18.8997V66.6086H71.562V18.8997C71.562 12.9725 67.214 8.17245 61.8499 8.17245ZM9.77586 17.9128C12.1754 17.9128 14.1207 15.7322 14.1207 13.0426C14.1207 10.3531 12.1754 8.17245 9.77586 8.17245C7.37632 8.17245 5.43103 10.3531 5.43103 13.0426C5.43103 15.7322 7.37632 17.9128 9.77586 17.9128Z" fill="white"/>
</svg>
